<?xml version="1.0" encoding="UTF-8" standalone="no"?>
<!DOCTYPE svg PUBLIC "-//W3C//DTD SVG 1.1//EN"
 "http://www.w3.org/Graphics/SVG/1.1/DTD/svg11.dtd">
<!-- Generated by graphviz version 2.47.0 (20210316.0004)
 -->
<!-- Title: dependencies Pages: 1 -->
<svg width="504pt" height="211pt"
 viewBox="0.00 0.00 504.00 211.00" xmlns="http://www.w3.org/2000/svg" xmlns:xlink="http://www.w3.org/1999/xlink">
<g id="graph0" class="graph" transform="scale(1 1) rotate(0) translate(4 207)">
<title>dependencies</title>
<polygon fill="white" stroke="transparent" points="-4,4 -4,-207 500,-207 500,4 -4,4"/>
<text text-anchor="start" x="227.01" y="-42.4" font-family="Times-12" font-weight="bold" font-size="14.00">Legend</text>
<polygon fill="#ffffb3" stroke="transparent" points="14,-10 14,-30 34,-30 34,-10 14,-10"/>
<text text-anchor="start" x="37.63" y="-15.4" font-family="Times-12" font-size="14.00"> &#160;Declarations</text>
<polygon fill="#8dd3c7" stroke="transparent" points="127,-10 127,-30 147,-30 147,-10 127,-10"/>
<text text-anchor="start" x="150.73" y="-15.4" font-family="Times-12" font-size="14.00"> &#160;Module</text>
<polygon fill="#80b1d3" stroke="transparent" points="213,-10 213,-30 233,-30 233,-10 213,-10"/>
<text text-anchor="start" x="236.78" y="-15.4" font-family="Times-12" font-size="14.00"> &#160;Bootstrap</text>
<polygon fill="#fdb462" stroke="transparent" points="310,-10 310,-30 330,-30 330,-10 310,-10"/>
<text text-anchor="start" x="333.67" y="-15.4" font-family="Times-12" font-size="14.00"> &#160;Providers</text>
<polygon fill="#fb8072" stroke="transparent" points="406,-10 406,-30 426,-30 426,-10 406,-10"/>
<text text-anchor="start" x="429.73" y="-15.4" font-family="Times-12" font-size="14.00"> &#160;Exports</text>
<g id="clust1" class="cluster">
<title>cluster_IdentityModule</title>
<polygon fill="none" stroke="black" stroke-dasharray="1,5" points="101,-70 101,-195 395,-195 395,-70 101,-70"/>
</g>
<g id="clust3" class="cluster">
<title>cluster_IdentityModule_imports</title>
<polygon fill="none" stroke="black" points="251,-78 251,-130 387,-130 387,-78 251,-78"/>
</g>
<g id="clust6" class="cluster">
<title>cluster_IdentityModule_providers</title>
<polygon fill="none" stroke="black" points="109,-78 109,-130 243,-130 243,-78 109,-78"/>
</g>
<!-- MessengerModule -->
<g id="node1" class="node">
<title>MessengerModule</title>
<polygon fill="#8dd3c7" stroke="black" points="379.19,-122 376.19,-126 355.19,-126 352.19,-122 258.81,-122 258.81,-86 379.19,-86 379.19,-122"/>
<text text-anchor="middle" x="319" y="-99.8" font-family="Times,serif" font-size="14.00">MessengerModule</text>
</g>
<!-- IdentityModule -->
<g id="node2" class="node">
<title>IdentityModule</title>
<polygon fill="#8dd3c7" stroke="black" points="298.6,-187 295.6,-191 274.6,-191 271.6,-187 195.4,-187 195.4,-151 298.6,-151 298.6,-187"/>
<text text-anchor="middle" x="247" y="-164.8" font-family="Times,serif" font-size="14.00">IdentityModule</text>
</g>
<!-- MessengerModule&#45;&gt;IdentityModule -->
<g id="edge1" class="edge">
<title>MessengerModule&#45;&gt;IdentityModule</title>
<path fill="none" stroke="black" d="M278.73,-122.11C278.73,-122.11 278.73,-140.99 278.73,-140.99"/>
<polygon fill="black" stroke="black" points="275.23,-140.99 278.73,-150.99 282.23,-140.99 275.23,-140.99"/>
</g>
<!-- AuthService -->
<g id="node3" class="node">
<title>AuthService</title>
<ellipse fill="#fdb462" stroke="black" cx="176" cy="-104" rx="59.11" ry="18"/>
<text text-anchor="middle" x="176" y="-99.8" font-family="Times,serif" font-size="14.00">AuthService</text>
</g>
<!-- AuthService&#45;&gt;IdentityModule -->
<g id="edge2" class="edge">
<title>AuthService&#45;&gt;IdentityModule</title>
<path fill="none" stroke="black" d="M215.38,-117.47C215.38,-117.47 215.38,-140.86 215.38,-140.86"/>
<polygon fill="black" stroke="black" points="211.88,-140.86 215.38,-150.86 218.88,-140.86 211.88,-140.86"/>
</g>
</g>
</svg>
